<mxfile host="app.diagrams.net" modified="2024-02-29T23:42:09.901Z" agent="Mozilla/5.0 (Windows NT 10.0; Win64; x64; rv:123.0) Gecko/20100101 Firefox/123.0" etag="W1r3713Bix-h0r9EnFlz" version="24.0.0" type="device">
  <diagram name="Page-1" id="dNQ7TPhp7EJTm5EB-lup">
    <mxGraphModel dx="1434" dy="746" grid="1" gridSize="10" guides="1" tooltips="1" connect="1" arrows="1" fold="1" page="1" pageScale="1" pageWidth="850" pageHeight="1100" math="0" shadow="0">
      <root>
        <mxCell id="0" />
        <mxCell id="1" parent="0" />
        <mxCell id="GShIBYUnyyi9PNnjDBVn-19" style="edgeStyle=orthogonalEdgeStyle;rounded=0;orthogonalLoop=1;jettySize=auto;html=1;entryX=0;entryY=0.5;entryDx=0;entryDy=0;" edge="1" parent="1" source="GShIBYUnyyi9PNnjDBVn-1" target="GShIBYUnyyi9PNnjDBVn-18">
          <mxGeometry relative="1" as="geometry" />
        </mxCell>
        <mxCell id="GShIBYUnyyi9PNnjDBVn-20" style="edgeStyle=orthogonalEdgeStyle;rounded=0;orthogonalLoop=1;jettySize=auto;html=1;entryX=0;entryY=0.5;entryDx=0;entryDy=0;" edge="1" parent="1" source="GShIBYUnyyi9PNnjDBVn-1" target="GShIBYUnyyi9PNnjDBVn-2">
          <mxGeometry relative="1" as="geometry" />
        </mxCell>
        <mxCell id="GShIBYUnyyi9PNnjDBVn-27" style="edgeStyle=orthogonalEdgeStyle;rounded=0;orthogonalLoop=1;jettySize=auto;html=1;exitX=1;exitY=0.5;exitDx=0;exitDy=0;entryX=0;entryY=0.5;entryDx=0;entryDy=0;" edge="1" parent="1" source="GShIBYUnyyi9PNnjDBVn-1" target="GShIBYUnyyi9PNnjDBVn-8">
          <mxGeometry relative="1" as="geometry">
            <Array as="points">
              <mxPoint x="450" y="370" />
              <mxPoint x="450" y="470" />
            </Array>
          </mxGeometry>
        </mxCell>
        <mxCell id="GShIBYUnyyi9PNnjDBVn-1" value="&lt;div&gt;Nuvoton&lt;/div&gt;&lt;div&gt;N76E003&lt;/div&gt;&lt;div&gt;Microcontroller&lt;br&gt;&lt;/div&gt;" style="whiteSpace=wrap;html=1;" vertex="1" parent="1">
          <mxGeometry x="280" y="340" width="120" height="60" as="geometry" />
        </mxCell>
        <mxCell id="GShIBYUnyyi9PNnjDBVn-2" value="Buzzer" style="whiteSpace=wrap;html=1;" vertex="1" parent="1">
          <mxGeometry x="500" y="350" width="120" height="60" as="geometry" />
        </mxCell>
        <mxCell id="GShIBYUnyyi9PNnjDBVn-16" style="edgeStyle=orthogonalEdgeStyle;rounded=0;orthogonalLoop=1;jettySize=auto;html=1;entryX=0;entryY=0.5;entryDx=0;entryDy=0;" edge="1" parent="1" source="GShIBYUnyyi9PNnjDBVn-3" target="GShIBYUnyyi9PNnjDBVn-1">
          <mxGeometry relative="1" as="geometry" />
        </mxCell>
        <mxCell id="GShIBYUnyyi9PNnjDBVn-3" value="Buttons x3" style="whiteSpace=wrap;html=1;" vertex="1" parent="1">
          <mxGeometry x="100" y="340" width="120" height="60" as="geometry" />
        </mxCell>
        <mxCell id="GShIBYUnyyi9PNnjDBVn-17" style="edgeStyle=orthogonalEdgeStyle;rounded=0;orthogonalLoop=1;jettySize=auto;html=1;entryX=0.25;entryY=0;entryDx=0;entryDy=0;" edge="1" parent="1" source="GShIBYUnyyi9PNnjDBVn-4" target="GShIBYUnyyi9PNnjDBVn-1">
          <mxGeometry relative="1" as="geometry" />
        </mxCell>
        <mxCell id="GShIBYUnyyi9PNnjDBVn-4" value="LM335 Thermistor" style="whiteSpace=wrap;html=1;" vertex="1" parent="1">
          <mxGeometry x="200" y="170" width="120" height="60" as="geometry" />
        </mxCell>
        <mxCell id="GShIBYUnyyi9PNnjDBVn-21" style="edgeStyle=orthogonalEdgeStyle;rounded=0;orthogonalLoop=1;jettySize=auto;html=1;entryX=0.75;entryY=0;entryDx=0;entryDy=0;" edge="1" parent="1" source="GShIBYUnyyi9PNnjDBVn-5" target="GShIBYUnyyi9PNnjDBVn-1">
          <mxGeometry relative="1" as="geometry">
            <Array as="points">
              <mxPoint x="410" y="290" />
              <mxPoint x="370" y="290" />
            </Array>
          </mxGeometry>
        </mxCell>
        <mxCell id="GShIBYUnyyi9PNnjDBVn-5" value="4.096V Voltage Reference" style="whiteSpace=wrap;html=1;" vertex="1" parent="1">
          <mxGeometry x="360" y="170" width="120" height="60" as="geometry" />
        </mxCell>
        <mxCell id="GShIBYUnyyi9PNnjDBVn-26" style="edgeStyle=orthogonalEdgeStyle;rounded=0;orthogonalLoop=1;jettySize=auto;html=1;entryX=0;entryY=0.5;entryDx=0;entryDy=0;" edge="1" parent="1" source="GShIBYUnyyi9PNnjDBVn-7" target="GShIBYUnyyi9PNnjDBVn-15">
          <mxGeometry relative="1" as="geometry" />
        </mxCell>
        <mxCell id="GShIBYUnyyi9PNnjDBVn-7" value="&lt;div&gt;TC7660&lt;br&gt;&lt;/div&gt;&lt;div&gt;5V Charge Pump&lt;/div&gt;" style="whiteSpace=wrap;html=1;" vertex="1" parent="1">
          <mxGeometry x="100" y="470" width="120" height="60" as="geometry" />
        </mxCell>
        <mxCell id="GShIBYUnyyi9PNnjDBVn-13" style="edgeStyle=orthogonalEdgeStyle;rounded=0;orthogonalLoop=1;jettySize=auto;html=1;exitX=1;exitY=0.5;exitDx=0;exitDy=0;entryX=0;entryY=0.5;entryDx=0;entryDy=0;" edge="1" parent="1" source="GShIBYUnyyi9PNnjDBVn-8" target="GShIBYUnyyi9PNnjDBVn-11">
          <mxGeometry relative="1" as="geometry" />
        </mxCell>
        <mxCell id="GShIBYUnyyi9PNnjDBVn-8" value="&lt;div&gt;3N06LS&lt;/div&gt;&lt;div&gt;nFET&lt;/div&gt;" style="whiteSpace=wrap;html=1;" vertex="1" parent="1">
          <mxGeometry x="500" y="440" width="120" height="60" as="geometry" />
        </mxCell>
        <mxCell id="GShIBYUnyyi9PNnjDBVn-11" value="Oven SSR" style="whiteSpace=wrap;html=1;" vertex="1" parent="1">
          <mxGeometry x="680" y="440" width="120" height="60" as="geometry" />
        </mxCell>
        <mxCell id="GShIBYUnyyi9PNnjDBVn-25" style="edgeStyle=orthogonalEdgeStyle;rounded=0;orthogonalLoop=1;jettySize=auto;html=1;entryX=0.5;entryY=1;entryDx=0;entryDy=0;" edge="1" parent="1" source="GShIBYUnyyi9PNnjDBVn-15" target="GShIBYUnyyi9PNnjDBVn-1">
          <mxGeometry relative="1" as="geometry" />
        </mxCell>
        <mxCell id="GShIBYUnyyi9PNnjDBVn-15" value="&lt;div&gt;OP07CP&lt;/div&gt;&lt;div&gt;Op Amp&lt;br&gt;&lt;/div&gt;" style="whiteSpace=wrap;html=1;" vertex="1" parent="1">
          <mxGeometry x="280" y="470" width="120" height="60" as="geometry" />
        </mxCell>
        <mxCell id="GShIBYUnyyi9PNnjDBVn-18" value="LCD" style="whiteSpace=wrap;html=1;" vertex="1" parent="1">
          <mxGeometry x="500" y="260" width="120" height="60" as="geometry" />
        </mxCell>
        <mxCell id="GShIBYUnyyi9PNnjDBVn-23" style="edgeStyle=orthogonalEdgeStyle;rounded=0;orthogonalLoop=1;jettySize=auto;html=1;entryX=0.5;entryY=1;entryDx=0;entryDy=0;" edge="1" parent="1" source="GShIBYUnyyi9PNnjDBVn-22" target="GShIBYUnyyi9PNnjDBVn-15">
          <mxGeometry relative="1" as="geometry" />
        </mxCell>
        <mxCell id="GShIBYUnyyi9PNnjDBVn-22" value="Thermocouple Wire" style="whiteSpace=wrap;html=1;" vertex="1" parent="1">
          <mxGeometry x="280" y="560" width="120" height="60" as="geometry" />
        </mxCell>
      </root>
    </mxGraphModel>
  </diagram>
</mxfile>
